o model_2
v 9460.2724609375 -17794.16015625 -35557.48046875 
v 24111.57421875 -17794.1640625 -35557.47265625 
v 9460.2724609375 -14602.017578125 -35557.48046875 
v 24111.57421875 -14602.017578125 -35557.48046875 
v 9460.2724609375 -11409.8740234375 -35557.48046875 
v 24111.57421875 -11409.8740234375 -35557.48046875 
v -456.7264404296875 -19678.396484375 -37441.7109375 
v 4619.65185546875 -19678.396484375 -37441.7109375 
v -456.7264404296875 -14602.017578125 -37441.7109375 
v 4619.65185546875 -14602.017578125 -37441.7109375 
v -10373.7294921875 -11409.8740234375 -35557.48046875 
v -25025.03515625 -11409.8740234375 -35557.48046875 
v -10373.7294921875 -14602.017578125 -35557.48046875 
v -25025.03515625 -14602.017578125 -35557.48046875 
v -10373.7294921875 -17794.1640625 -35557.48046875 
v -25025.03515625 -17794.16015625 -35557.48046875 
v -456.7264404296875 -14602.017578125 -37441.7109375 
v 4619.65185546875 -14602.017578125 -37441.7109375 
v -456.7264404296875 -9525.6376953125 -37441.7109375 
v 4619.65185546875 -9525.6376953125 -37441.7109375 
v -456.7264404296875 -9525.6376953125 -37441.7109375 
v -2162.93115234375 -9525.6376953125 -37441.7109375 
v -456.7264404296875 -14602.017578125 -37441.7109375 
v -2162.93115234375 -14602.017578125 -37441.7109375 
v -5533.10888671875 -14602.017578125 -37441.7109375 
v -2162.93115234375 -19678.396484375 -37441.7109375 
v -5533.10888671875 -19678.396484375 -37441.7109375 
v -2162.93115234375 -19678.396484375 -37441.7109375 
v -456.7264404296875 -19678.396484375 -37441.7109375 
v -2162.93115234375 -14602.017578125 -37441.7109375 
v -456.7264404296875 -14602.017578125 -37441.7109375 
v -5533.10888671875 -14602.017578125 -37441.7109375 
v -2162.93115234375 -14602.017578125 -37441.7109375 
v -5533.10888671875 -9525.6376953125 -37441.7109375 
v -2162.93115234375 -9525.6376953125 -37441.7109375 
v 11369.2353515625 5140.9755859375 -42614.55859375 
v 28840.837890625 5140.9755859375 -42614.56640625 
v 11369.2353515625 1334.3609619140625 -42614.55859375 
v 28840.837890625 1334.3609619140625 -42614.56640625 
v -6510.28515625 7387.91845703125 -44861.5 
v 5596.828125 7387.91845703125 -44861.5 
v -6510.28515625 1334.3609619140625 -44861.5 
v 5596.828125 1334.3609619140625 -44861.5 
v -6510.28515625 -4719.19677734375 -44861.5 
v 5596.828125 -4719.19677734375 -44861.5 
v -12282.697265625 -2472.253662109375 -42614.55859375 
v -29754.294921875 -2472.253662109375 -42614.55859375 
v -12282.697265625 1334.3609619140625 -42614.55859375 
v -29754.294921875 1334.3609619140625 -42614.55859375 
v -12282.697265625 1334.3609619140625 -42614.55859375 
v -29754.294921875 1334.3609619140625 -42614.55859375 
v -12282.697265625 5140.9755859375 -42614.55859375 
v -29754.30078125 5140.9755859375 -42614.55859375 
v 11369.2353515625 1334.3609619140625 -42614.55859375 
v 28840.837890625 1334.3609619140625 -42614.56640625 
v 11369.2353515625 -2472.253662109375 -42614.55859375 
v 28840.837890625 -2472.253662109375 -42614.56640625 
v 9460.2724609375 -10152.125 -35557.48046875 
v 24111.57421875 -10152.125 -35557.48046875 
v 9460.2724609375 -3767.836181640625 -35557.48046875 
v 24111.57421875 -3767.839111328125 -35557.48046875 
v -5533.10888671875 -12036.3623046875 -37441.7109375 
v 4619.65185546875 -12036.3623046875 -37441.7109375 
v -5533.10888671875 -1883.599365234375 -37441.7109375 
v 4619.65185546875 -1883.599365234375 -37441.7109375 
v -10373.7294921875 -3767.836181640625 -35557.47265625 
v -25025.03125 -3767.839111328125 -35557.47265625 
v -10373.7294921875 -10152.125 -35557.48046875 
v -25025.03515625 -10152.125 -35557.48046875 
vn 0 0 1 
vn 0 0 1 
vn 0 0 1 
vn 0 0 1 
vn 0 0 1 
vn 0 0 1 
vn 0 0 1 
vn 0 0 1 
vn 0 0 1 
vn 0 0 1 
vn 0 0 1 
vn 0 0 1 
vn 0 0 1 
vn 0 0 1 
vn 0 0 1 
vn 0 0 1 
vn 0 0 1 
vn 0 0 1 
vn 0 0 1 
vn 0 0 1 
vn 0 0 1 
vn 0 0 1 
vn 0 0 1 
vn 0 0 1 
vn 0 0 1 
vn 0 0 1 
vn 0 0 1 
vn 0 0 1 
vn 0 0 1 
vn 0 0 1 
vn 0 0 1 
vn 0 0 1 
vn 0 0 1 
vn 0 0 1 
vn 0 0 1 
vn 2.0682311115474694e-13 4.2775797696334704e-26 -1 
vn 2.0682311115474694e-13 4.2775797696334704e-26 -1 
vn 2.0682311115474694e-13 4.2775797696334704e-26 -1 
vn 2.0682311115474694e-13 4.2775797696334704e-26 -1 
vn -2.0682311115474694e-13 0 -1 
vn -2.0682311115474694e-13 0 -1 
vn -2.0682311115474694e-13 0 -1 
vn -2.0682311115474694e-13 0 -1 
vn -2.0682311115474694e-13 0 -1 
vn -2.0682311115474694e-13 0 -1 
vn 2.0682311115474694e-13 4.2775797696334704e-26 -1 
vn 2.0682311115474694e-13 4.2775797696334704e-26 -1 
vn 2.0682311115474694e-13 4.2775797696334704e-26 -1 
vn 2.0682311115474694e-13 4.2775797696334704e-26 -1 
vn 2.0682311115474694e-13 4.2775797696334704e-26 -1 
vn 2.0682311115474694e-13 4.2775797696334704e-26 -1 
vn 2.0682311115474694e-13 4.2775797696334704e-26 -1 
vn 2.0682311115474694e-13 4.2775797696334704e-26 -1 
vn 2.0682311115474694e-13 4.2775797696334704e-26 -1 
vn 2.0682311115474694e-13 4.2775797696334704e-26 -1 
vn 2.0682311115474694e-13 4.2775797696334704e-26 -1 
vn 2.0682311115474694e-13 4.2775797696334704e-26 -1 
vn 0 0 1 
vn 0 0 1 
vn 0 0 1 
vn 0 0 1 
vn 0 0 1 
vn 0 0 1 
vn 0 0 1 
vn 0 0 1 
vn 0 0 1 
vn 0 0 1 
vn 0 0 1 
vn 0 0 1 
s on 
f 1//1 2//2 3//3 
f 2//2 4//4 3//3 
f 3//3 4//4 5//5 
f 4//4 6//6 5//5 
f 5//5 6//6 6//6 
f 6//6 7//7 6//6 
f 6//6 7//7 7//7 
f 7//7 8//8 7//7 
f 7//7 8//8 9//9 
f 8//8 10//10 9//9 
f 9//9 10//10 10//10 
f 10//10 11//11 10//10 
f 10//10 11//11 11//11 
f 11//11 12//12 11//11 
f 11//11 12//12 13//13 
f 12//12 14//14 13//13 
f 13//13 14//14 15//15 
f 14//14 16//16 15//15 
f 15//15 16//16 16//16 
f 16//16 17//17 16//16 
f 16//16 17//17 17//17 
f 17//17 18//18 17//17 
f 17//17 18//18 19//19 
f 18//18 20//20 19//19 
f 19//19 20//20 20//20 
f 20//20 21//21 20//20 
f 20//20 21//21 21//21 
f 21//21 22//22 21//21 
f 21//21 22//22 23//23 
f 22//22 24//24 23//23 
f 23//23 24//24 24//24 
f 24//24 24//24 24//24 
f 24//24 24//24 24//24 
f 24//24 25//25 24//24 
f 24//24 25//25 26//26 
f 25//25 27//27 26//26 
f 26//26 27//27 27//27 
f 27//27 28//28 27//27 
f 27//27 28//28 28//28 
f 28//28 29//29 28//28 
f 28//28 29//29 30//30 
f 29//29 31//31 30//30 
f 30//30 31//31 31//31 
f 31//31 32//32 31//31 
f 31//31 32//32 32//32 
f 32//32 33//33 32//32 
f 32//32 33//33 34//34 
f 33//33 35//35 34//34 
f 34//34 35//35 35//35 
f 35//35 36//36 35//35 
f 35//35 36//36 36//36 
f 36//36 37//37 36//36 
f 36//36 37//37 38//38 
f 37//37 39//39 38//38 
f 38//38 39//39 39//39 
f 39//39 40//40 39//39 
f 39//39 40//40 40//40 
f 40//40 41//41 40//40 
f 40//40 41//41 42//42 
f 41//41 43//43 42//42 
f 42//42 43//43 44//44 
f 43//43 45//45 44//44 
f 44//44 45//45 45//45 
f 45//45 46//46 45//45 
f 45//45 46//46 46//46 
f 46//46 47//47 46//46 
f 46//46 47//47 48//48 
f 47//47 49//49 48//48 
f 48//48 49//49 49//49 
f 49//49 50//50 49//49 
f 49//49 50//50 50//50 
f 50//50 51//51 50//50 
f 50//50 51//51 52//52 
f 51//51 53//53 52//52 
f 52//52 53//53 53//53 
f 53//53 54//54 53//53 
f 53//53 54//54 54//54 
f 54//54 55//55 54//54 
f 54//54 55//55 56//56 
f 55//55 57//57 56//56 
f 56//56 57//57 57//57 
f 57//57 58//58 57//57 
f 57//57 58//58 58//58 
f 58//58 59//59 58//58 
f 58//58 59//59 60//60 
f 59//59 61//61 60//60 
f 60//60 61//61 61//61 
f 61//61 62//62 61//61 
f 61//61 62//62 62//62 
f 62//62 63//63 62//62 
f 62//62 63//63 64//64 
f 63//63 65//65 64//64 
f 64//64 65//65 65//65 
f 65//65 66//66 65//65 
f 65//65 66//66 66//66 
f 66//66 67//67 66//66 
f 66//66 67//67 68//68 
f 67//67 69//69 68//68 

