mtllib model_0.mtl
o model_0
v -9305.5595703125 6955.9609375 21567.30078125 
v -9305.5595703125 5869.2431640625 21567.30078125 
v -9305.5595703125 6955.9609375 23968.52734375 
v -9305.5595703125 5869.2431640625 24307.83203125 
v -9305.5595703125 6955.9609375 24882.0390625 
v -9305.5595703125 5869.2431640625 24882.0390625 
v 8393.794921875 5438.6572265625 24882.0390625 
v 8393.794921875 4351.93994140625 24882.0390625 
v 8393.794921875 5438.6572265625 22480.810546875 
v 8393.794921875 4351.93994140625 22141.505859375 
v 8393.794921875 5438.6572265625 21567.30078125 
v 8393.794921875 4351.93994140625 21567.30078125 
vn -0.999997615814209 -2.0682260971124217e-13 -0.002184694167226553 
vn -0.999997615814209 -2.0682260971124217e-13 -0.002184694167226553 
vn -0.999997615814209 -2.0682260971124217e-13 -0.002184694167226553 
vn -0.999997615814209 -2.0682260971124217e-13 -0.002184694167226553 
vn -0.999997615814209 -2.0682260971124217e-13 -0.002184694167226553 
vn -0.999997615814209 -2.0682260971124217e-13 -0.002184694167226553 
vn 0.999997615814209 0 0.002184694167226553 
vn 0.999997615814209 0 0.002184694167226553 
vn 0.999997615814209 0 0.002184694167226553 
vn 0.999997615814209 0 0.002184694167226553 
vn 0.999997615814209 0 0.002184694167226553 
vn 0.999997615814209 0 0.002184694167226553 
vt 0.0349992997944355 0.8011652231216431 
vt 0.0349992997944355 0.7022309899330139 
vt 0.2524712383747101 0.8011652231216431 
vt 0.2836226224899292 0.7022309899330139 
vt 0.33534568548202515 0.8011652231216431 
vt 0.33534568548202515 0.7022309899330139 
vt 0.0349992997944355 0.8011652231216431 
vt 0.0349992997944355 0.7022309899330139 
vt 0.2524712383747101 0.8011652231216431 
vt 0.2836226224899292 0.7022309899330139 
vt 0.33534568548202515 0.8011652231216431 
vt 0.33534568548202515 0.7022309899330139 
s on 
f 1/1/1 2/2/2 3/3/3 
f 2/2/2 4/4/4 3/3/3 
f 3/3/3 4/4/4 5/5/5 
f 4/4/4 6/6/6 5/5/5 
f 5/5/5 6/6/6 6/6/6 
f 6/6/6 7/7/7 6/6/6 
f 6/6/6 7/7/7 7/7/7 
f 7/7/7 8/8/8 7/7/7 
f 7/7/7 8/8/8 9/9/9 
f 8/8/8 10/10/10 9/9/9 
f 9/9/9 10/10/10 11/11/11 
f 10/10/10 12/12/12 11/11/11 

